<svg width="20" height="21" viewBox="0 0 20 21" fill="none" xmlns="http://www.w3.org/2000/svg">
<g id="vuesax/bulk/tick-square">
<g id="tick-square">
<path id="Vector" opacity="0.4" d="M13.4917 2.16667H6.50834C3.475 2.16667 1.66667 3.975 1.66667 7.00834V13.9833C1.66667 17.025 3.475 18.8333 6.50834 18.8333H13.4833C16.5167 18.8333 18.325 17.025 18.325 13.9917V7.00834C18.3333 3.975 16.525 2.16667 13.4917 2.16667Z" fill="#428BF9"/>
<path id="Vector_2" d="M8.81667 13.4833C8.65 13.4833 8.49167 13.4167 8.375 13.3L6.01667 10.9417C5.775 10.7 5.775 10.3 6.01667 10.0583C6.25834 9.81667 6.65834 9.81667 6.9 10.0583L8.81667 11.975L13.1 7.69167C13.3417 7.45001 13.7417 7.45001 13.9833 7.69167C14.225 7.93334 14.225 8.33334 13.9833 8.575L9.25834 13.3C9.14167 13.4167 8.98334 13.4833 8.81667 13.4833Z" fill="#428BF9"/>
</g>
</g>
</svg>
